# xmcd
#
# Track frame offsets: 
#        150
#        20415
#        38712
#        58015
#        79290
#        97037
#        114272
#        133000
#        155435
#        172345
#        192127
#
# Disc length: 2786 seconds
#
# Revision: 0
# Processed by: cddbd v1.5PL3 Copyright (c) Steve Scherf et al.
# Submitted via: ExactAudioCopy v0.95a5
#
DISCID=900ae00b
DTITLE=aile - PLAY
DYEAR=2003
DGENRE=R&B
TTITLE0=Who Am I? 
TTITLE1=ñl¤±Òý¤­¤Ï¥¤¥é¥Ê¥¤
TTITLE2=Come On Boy 
TTITLE3=Ki Mi Ga Su Ki 
TTITLE4=I Can't Deny 
TTITLE5=No One 
TTITLE6=Mother 
TTITLE7=Around The Way Girl (Air Jornan Remix) 
TTITLE8=What's It All About 
TTITLE9=Drama 
TTITLE10=Who Dat? 
EXTD=
EXTT0=
EXTT1=
EXTT2=
EXTT3=
EXTT4=
EXTT5=
EXTT6=
EXTT7=
EXTT8=
EXTT9=
EXTT10=
PLAYORDER=
